<svg width="32" height="32" viewBox="0 0 32 32" fill="none" xmlns="http://www.w3.org/2000/svg">
<path d="M17.5 15.9996C17.5 16.2962 17.412 16.5862 17.2472 16.8329C17.0824 17.0796 16.8481 17.2718 16.574 17.3854C16.2999 17.4989 15.9983 17.5286 15.7074 17.4707C15.4164 17.4129 15.1491 17.27 14.9393 17.0602C14.7296 16.8504 14.5867 16.5832 14.5288 16.2922C14.4709 16.0012 14.5006 15.6996 14.6142 15.4255C14.7277 15.1514 14.92 14.9172 15.1666 14.7523C15.4133 14.5875 15.7033 14.4996 16 14.4996C16.3978 14.4996 16.7794 14.6576 17.0607 14.9389C17.342 15.2202 17.5 15.6017 17.5 15.9996ZM10.5 14.4996C10.2033 14.4996 9.91332 14.5875 9.66664 14.7523C9.41997 14.9172 9.22771 15.1514 9.11418 15.4255C9.00065 15.6996 8.97094 16.0012 9.02882 16.2922C9.0867 16.5832 9.22956 16.8504 9.43934 17.0602C9.64912 17.27 9.91639 17.4129 10.2074 17.4707C10.4983 17.5286 10.7999 17.4989 11.074 17.3854C11.3481 17.2718 11.5824 17.0796 11.7472 16.8329C11.912 16.5862 12 16.2962 12 15.9996C12 15.6017 11.842 15.2202 11.5607 14.9389C11.2794 14.6576 10.8978 14.4996 10.5 14.4996ZM21.5 14.4996C21.2033 14.4996 20.9133 14.5875 20.6666 14.7523C20.42 14.9172 20.2277 15.1514 20.1142 15.4255C20.0007 15.6996 19.9709 16.0012 20.0288 16.2922C20.0867 16.5832 20.2296 16.8504 20.4393 17.0602C20.6491 17.27 20.9164 17.4129 21.2074 17.4707C21.4983 17.5286 21.7999 17.4989 22.074 17.3854C22.3481 17.2718 22.5824 17.0796 22.7472 16.8329C22.912 16.5862 23 16.2962 23 15.9996C23 15.6017 22.842 15.2202 22.5607 14.9389C22.2794 14.6576 21.8978 14.4996 21.5 14.4996ZM29 15.9996C29.0005 18.244 28.4199 20.4503 27.3147 22.4037C26.2095 24.3572 24.6174 25.9912 22.6934 27.1468C20.7693 28.3024 18.5788 28.9402 16.3352 28.9981C14.0915 29.0559 11.8711 28.5319 9.89 27.4771L5.63375 28.8958C5.28136 29.0133 4.9032 29.0304 4.54166 28.9451C4.18012 28.8597 3.84948 28.6754 3.58681 28.4127C3.32414 28.1501 3.13982 27.8194 3.0545 27.4579C2.96918 27.0964 2.98623 26.7182 3.10375 26.3658L4.5225 22.1096C3.59519 20.3661 3.07725 18.4343 3.008 16.4608C2.93875 14.4872 3.32001 12.5239 4.12284 10.7197C4.92567 8.91555 6.12897 7.31798 7.6414 6.04829C9.15383 4.7786 10.9356 3.87015 12.8516 3.39189C14.7675 2.91364 16.7672 2.87816 18.699 3.28814C20.6307 3.69811 22.4436 4.54278 24.0001 5.75801C25.5566 6.97325 26.8158 8.52712 27.6822 10.3017C28.5485 12.0762 28.9992 14.0248 29 15.9996ZM27 15.9996C26.9995 14.3122 26.6109 12.6476 25.8641 11.1345C25.1174 9.62137 24.0325 8.30034 22.6935 7.27359C21.3545 6.24684 19.7973 5.54189 18.1422 5.21328C16.4872 4.88468 14.7787 4.94122 13.149 5.37855C11.5194 5.81587 10.0121 6.62225 8.74394 7.73529C7.47577 8.84833 6.48065 10.2382 5.83558 11.7974C5.1905 13.3566 4.91277 15.0432 5.02387 16.7269C5.13496 18.4106 5.63191 20.0462 6.47625 21.507C6.54712 21.6297 6.59112 21.766 6.60534 21.9069C6.61956 22.0479 6.60368 22.1902 6.55875 22.3246L5 26.9995L9.675 25.4408C9.77683 25.4061 9.88367 25.3883 9.99125 25.3883C10.1669 25.3886 10.3393 25.4352 10.4912 25.5233C12.1635 26.4908 14.0611 27.0009 15.9931 27.0021C17.925 27.0033 19.8232 26.4957 21.4967 25.5303C23.1702 24.5648 24.5599 23.1757 25.526 21.5026C26.492 19.8295 27.0004 17.9315 27 15.9996Z" fill="#08483C"/>
</svg>
